<?xml version="1.0" standalone="no"?>
<!DOCTYPE svg PUBLIC "-//W3C//DTD SVG 20010904//EN"
 "http://www.w3.org/TR/2001/REC-SVG-20010904/DTD/svg10.dtd">
<svg version="1.0" xmlns="http://www.w3.org/2000/svg"
 width="1024.000000pt" height="1024.000000pt" viewBox="0 0 1024.000000 1024.000000"
 preserveAspectRatio="xMidYMid meet">

<g transform="translate(0.000000,1024.000000) scale(0.100000,-0.100000)"
fill="#000000" stroke="none">
<path d="M1685 6599 c-45 -5 -124 -20 -178 -33 -444 -113 -785 -433 -915 -861
-47 -151 -56 -215 -55 -390 0 -128 4 -180 22 -260 120 -533 532 -928 1065
-1020 113 -19 304 -19 426 0 551 89 987 518 1081 1063 82 485 -100 942 -496
1244 -263 200 -607 293 -950 257z m330 -140 c153 -19 348 -92 490 -184 87 -56
221 -181 283 -265 88 -118 155 -254 193 -395 31 -113 33 -130 34 -285 0 -182
-11 -256 -57 -390 -98 -282 -311 -531 -566 -659 -459 -231 -986 -163 -1353
177 -267 247 -412 639 -369 997 61 510 439 908 950 999 142 26 224 27 395 5z"/>
<path d="M1391 6084 c-11 -14 -23 -45 -27 -70 l-6 -44 -74 0 c-85 0 -133 -23
-175 -82 l-24 -33 0 -616 0 -616 29 -37 c59 -78 33 -76 735 -76 611 0 626 0
667 21 27 13 54 37 73 66 l31 46 0 592 c0 645 1 632 -57 687 -40 38 -73 48
-159 48 l-74 0 0 44 c0 64 -29 96 -85 96 -53 0 -81 -29 -91 -96 l-6 -44 -294
0 -293 0 -7 38 c-13 75 -40 102 -99 102 -35 0 -48 -5 -64 -26z m-21 -266 c0
-57 35 -97 85 -97 43 -1 77 30 95 84 8 26 18 47 23 46 4 -1 135 -1 291 -1
l284 0 7 -39 c8 -49 48 -91 86 -91 15 0 41 12 58 26 26 21 31 33 31 68 l0 43
63 -2 c67 -2 103 -17 111 -50 3 -11 6 -51 6 -90 l0 -70 -660 0 -660 0 0 80 c0
119 17 135 133 127 45 -4 47 -5 47 -34z m1140 -716 l0 -429 -26 -24 -26 -24
-581 -3 c-320 -2 -597 0 -615 3 -18 3 -42 15 -53 26 -18 18 -19 36 -19 449 l0
430 660 0 660 0 0 -428z"/>
<path d="M1350 5370 c-11 -7 -15 -31 -17 -97 -2 -127 -6 -124 140 -121 l122 3
3 104 c2 77 -1 107 -10 113 -18 11 -220 10 -238 -2z"/>
<path d="M1722 5368 c-18 -18 -16 -192 2 -207 9 -8 54 -11 132 -9 l119 3 3 99
c2 64 -1 103 -9 112 -15 18 -229 20 -247 2z"/>
<path d="M2101 5366 c-8 -9 -11 -48 -9 -112 l3 -99 125 0 125 0 3 99 c2 64 -1
103 -9 112 -8 10 -39 14 -119 14 -80 0 -111 -4 -119 -14z"/>
<path d="M2112 5024 c-30 -21 -28 -34 13 -74 19 -19 35 -37 35 -41 0 -4 -16
-23 -36 -43 -39 -39 -41 -61 -7 -83 20 -13 24 -12 61 21 22 20 43 36 47 36 4
0 25 -16 47 -36 37 -33 41 -34 61 -21 33 22 32 42 -8 86 l-36 39 36 36 c19 19
35 41 35 48 -1 50 -57 54 -105 8 l-33 -32 -37 36 c-41 41 -43 42 -73 20z"/>
<path d="M1341 5011 c-11 -20 -8 -191 3 -210 8 -13 224 -15 244 -3 9 6 12 37
10 118 l-3 109 -122 3 c-112 2 -123 1 -132 -17z"/>
<path d="M1722 5018 c-8 -8 -12 -47 -12 -108 0 -61 4 -100 12 -108 17 -17 229
-17 246 0 16 16 16 200 0 216 -17 17 -229 17 -246 0z"/>
<path d="M3740 5920 c-259 -45 -419 -284 -396 -595 9 -115 24 -175 67 -256 83
-157 238 -249 418 -249 189 0 343 96 430 267 42 84 22 106 -92 101 l-72 -3
-19 -38 c-44 -91 -126 -137 -245 -137 -157 0 -247 96 -272 289 -26 195 41 364
165 416 47 20 155 23 213 7 56 -17 130 -88 138 -136 l7 -36 79 0 c66 0 82 3
100 21 22 22 21 33 -14 109 -26 55 -137 169 -194 199 -91 46 -201 60 -313 41z"/>
<path d="M5162 5918 c-15 -15 -17 -1013 -2 -1052 9 -26 11 -26 110 -26 l100 0
0 526 c0 343 -4 532 -10 545 -9 17 -22 19 -98 19 -55 0 -92 -4 -100 -12z"/>
<path d="M8042 5914 c-70 -49 -66 -161 8 -199 38 -19 100 -19 128 1 28 19 52
65 52 99 0 34 -24 80 -52 99 -12 9 -43 16 -68 16 -25 0 -56 -7 -68 -16z"/>
<path d="M8603 5911 c-28 -11 -63 -27 -76 -38 -51 -38 -96 -126 -97 -190 0
-18 -5 -44 -12 -58 -10 -22 -17 -25 -68 -25 -31 0 -61 -5 -68 -12 -7 -7 -12
-39 -12 -75 l0 -63 78 0 77 0 -3 -262 c-3 -293 0 -344 26 -350 9 -1 56 -2 105
0 l87 3 0 305 0 304 84 0 c93 0 96 2 96 82 0 56 -19 68 -106 68 l-74 0 0 58
c0 74 17 98 72 107 104 16 115 22 122 64 3 21 3 53 0 70 l-6 31 -87 0 c-58 -1
-103 -7 -138 -19z"/>
<path d="M7687 5913 c-4 -3 -7 -87 -7 -185 0 -119 -4 -178 -11 -178 -6 0 -25
11 -42 24 -50 37 -101 49 -186 44 -180 -10 -302 -125 -334 -313 -24 -138 24
-314 105 -392 120 -114 328 -128 444 -30 38 32 44 33 44 7 0 -43 34 -60 117
-60 l76 0 -6 248 c-4 136 -7 381 -7 545 l0 297 -93 0 c-52 0 -97 -3 -100 -7z
m-96 -476 c48 -32 80 -96 87 -172 14 -181 -41 -274 -168 -283 -139 -10 -202
64 -203 238 -1 162 62 239 194 240 42 0 64 -6 90 -23z"/>
<path d="M4631 5619 c-116 -20 -209 -90 -243 -183 -26 -70 -20 -76 77 -76 l82
0 24 34 c31 45 77 66 145 66 91 0 144 -44 144 -119 0 -38 -3 -38 -175 -44
-179 -7 -254 -36 -304 -118 -29 -48 -29 -156 0 -216 41 -84 146 -143 255 -143
64 0 156 28 196 60 20 17 39 30 42 30 3 0 12 -16 20 -35 l15 -35 75 0 76 0 2
223 c2 122 0 251 -4 287 -10 85 -49 163 -100 200 -84 61 -215 89 -327 69z
m229 -486 c-3 -21 -11 -47 -17 -58 -52 -94 -196 -124 -265 -55 -64 64 -18 134
94 144 73 7 180 12 189 9 4 -2 3 -20 -1 -40z"/>
<path d="M5693 5601 c-92 -31 -160 -94 -206 -191 -30 -62 -32 -71 -32 -190 0
-115 2 -130 27 -182 66 -142 191 -219 353 -219 166 1 279 62 339 184 14 29 14
33 -1 45 -10 7 -48 12 -93 12 -68 0 -79 -3 -100 -25 -84 -89 -260 -62 -311 48
-37 82 -52 77 245 77 222 0 266 2 276 15 20 24 8 170 -18 229 -45 100 -124
172 -221 202 -65 20 -194 17 -258 -5z m213 -162 c46 -22 80 -66 90 -118 l7
-31 -161 0 c-88 0 -168 -3 -178 -7 -15 -6 -16 -2 -11 32 3 21 19 55 35 74 56
70 139 89 218 50z"/>
<path d="M6605 5604 c-22 -10 -59 -32 -81 -50 l-41 -33 -16 40 -16 40 -83 -3
-83 -3 -3 -382 -2 -383 86 0 c133 0 124 -17 124 239 0 217 0 217 28 272 21 42
37 59 72 77 60 31 138 27 176 -9 55 -51 58 -66 64 -317 6 -271 2 -262 105
-262 100 0 97 -10 93 301 -3 260 -3 265 -29 319 -31 65 -76 112 -138 142 -61
30 -198 36 -256 12z"/>
<path d="M8017 5603 c-4 -3 -7 -179 -7 -390 l0 -383 93 0 c50 0 98 4 105 8 10
7 12 86 10 381 -3 317 -5 373 -18 381 -17 11 -173 14 -183 3z"/>
<path d="M8872 5603 c-13 -3 -26 -11 -29 -18 -3 -8 15 -61 40 -117 39 -88 114
-265 231 -545 14 -34 26 -73 26 -85 -1 -13 -25 -84 -55 -158 -64 -161 -63
-162 55 -158 l75 3 66 165 c90 223 323 816 340 862 7 21 10 41 6 44 -4 4 -41
7 -82 8 -62 0 -79 -3 -94 -19 -10 -11 -44 -90 -76 -175 -96 -262 -128 -341
-135 -333 -4 5 -16 33 -28 63 -104 274 -175 447 -189 458 -16 11 -101 14 -151
5z"/>
</g>
</svg>
