<svg xmlns="http://www.w3.org/2000/svg" xmlns:xlink="http://www.w3.org/1999/xlink" width="1280" zoomAndPan="magnify" viewBox="0 0 960 540.000001" height="720" preserveAspectRatio="xMidYMid meet" version="1.0"><defs><g/><clipPath id="b80012f10c"><path d="M 517 46.289062 L 531 46.289062 L 531 84 L 517 84 Z M 517 46.289062 " clip-rule="nonzero"/></clipPath><clipPath id="bd57f49669"><path d="M 549 46.289062 L 563 46.289062 L 563 84 L 549 84 Z M 549 46.289062 " clip-rule="nonzero"/></clipPath><clipPath id="a5b6501c50"><path d="M 580 46.289062 L 594 46.289062 L 594 84 L 580 84 Z M 580 46.289062 " clip-rule="nonzero"/></clipPath><clipPath id="6dd1703542"><path d="M 612 46.289062 L 627 46.289062 L 627 84 L 612 84 Z M 612 46.289062 " clip-rule="nonzero"/></clipPath><clipPath id="b6006362bb"><path d="M 504 46.289062 L 518 46.289062 L 518 84 L 504 84 Z M 504 46.289062 " clip-rule="nonzero"/></clipPath><clipPath id="6f5f6dca23"><path d="M 536 46.289062 L 550 46.289062 L 550 84 L 536 84 Z M 536 46.289062 " clip-rule="nonzero"/></clipPath><clipPath id="2fdffa1aff"><path d="M 567 46.289062 L 581 46.289062 L 581 84 L 567 84 Z M 567 46.289062 " clip-rule="nonzero"/></clipPath><clipPath id="33b23e8983"><path d="M 599 46.289062 L 613 46.289062 L 613 84 L 599 84 Z M 599 46.289062 " clip-rule="nonzero"/></clipPath></defs><path fill="#db8e63" d="M 335.871094 225.558594 C 335.871094 225.558594 360.046875 248.875 378.9375 272.167969 C 397.828125 295.460938 415.667969 313.621094 415.667969 313.621094 L 487.644531 250.722656 L 496.183594 286.578125 C 496.183594 286.578125 440.554688 380.488281 420.5 379.347656 C 400.460938 378.210938 305.351562 307.957031 305.351562 307.957031 L 310.710938 236.628906 Z M 335.871094 225.558594 " fill-opacity="1" fill-rule="nonzero"/><path fill="#563025" d="M 485.375 84.539062 L 485.375 81.140625 C 487.875 81.140625 490.265625 79.648438 492.113281 76.933594 C 494.097656 74.027344 495.191406 70.128906 495.191406 65.957031 C 495.191406 61.78125 494.097656 57.882812 492.113281 54.976562 C 490.265625 52.261719 487.875 50.769531 485.375 50.769531 L 485.375 47.371094 C 489.035156 47.371094 492.421875 49.390625 494.929688 53.0625 C 497.300781 56.527344 498.601562 61.109375 498.601562 65.957031 C 498.601562 70.800781 497.300781 75.382812 494.929688 78.851562 C 492.421875 82.523438 489.035156 84.539062 485.375 84.539062 Z M 485.375 84.539062 " fill-opacity="1" fill-rule="nonzero"/><g clip-path="url(#b80012f10c)"><path fill="#563025" d="M 517.546875 83.582031 L 517.546875 80.183594 C 520.042969 80.183594 522.4375 78.691406 524.285156 75.976562 C 526.265625 73.070312 527.363281 69.171875 527.363281 65 C 527.363281 60.824219 526.265625 56.925781 524.285156 54.019531 C 522.4375 51.304688 520.042969 49.8125 517.546875 49.8125 L 517.546875 46.414062 C 521.207031 46.414062 524.589844 48.433594 527.101562 52.101562 C 529.472656 55.570312 530.769531 60.152344 530.769531 65 C 530.769531 69.84375 529.472656 74.425781 527.101562 77.894531 C 524.589844 81.550781 521.195312 83.582031 517.546875 83.582031 Z M 517.546875 83.582031 " fill-opacity="1" fill-rule="nonzero"/></g><g clip-path="url(#bd57f49669)"><path fill="#563025" d="M 549.386719 83.582031 L 549.386719 80.183594 C 551.882812 80.183594 554.277344 78.691406 556.125 75.976562 C 558.105469 73.070312 559.203125 69.171875 559.203125 65 C 559.203125 60.824219 558.105469 56.925781 556.125 54.019531 C 554.277344 51.304688 551.882812 49.8125 549.386719 49.8125 L 549.386719 46.414062 C 553.046875 46.414062 556.429688 48.433594 558.9375 52.101562 C 561.308594 55.570312 562.609375 60.152344 562.609375 65 C 562.609375 69.84375 561.308594 74.425781 558.9375 77.894531 C 556.429688 81.550781 553.046875 83.582031 549.386719 83.582031 Z M 549.386719 83.582031 " fill-opacity="1" fill-rule="nonzero"/></g><g clip-path="url(#a5b6501c50)"><path fill="#563025" d="M 580.757812 83.582031 L 580.757812 80.183594 C 583.253906 80.183594 585.648438 78.691406 587.496094 75.976562 C 589.480469 73.070312 590.574219 69.171875 590.574219 65 C 590.574219 60.824219 589.480469 56.925781 587.496094 54.019531 C 585.648438 51.304688 583.253906 49.8125 580.757812 49.8125 L 580.757812 46.414062 C 584.417969 46.414062 587.804688 48.433594 590.3125 52.101562 C 592.683594 55.570312 593.980469 60.152344 593.980469 65 C 593.980469 69.84375 592.683594 74.425781 590.3125 77.894531 C 587.804688 81.550781 584.417969 83.582031 580.757812 83.582031 Z M 580.757812 83.582031 " fill-opacity="1" fill-rule="nonzero"/></g><g clip-path="url(#6dd1703542)"><path fill="#563025" d="M 612.871094 83.582031 L 612.871094 80.183594 C 615.367188 80.183594 617.761719 78.691406 619.609375 75.976562 C 621.59375 73.070312 622.6875 69.171875 622.6875 65 C 622.6875 60.824219 621.59375 56.925781 619.609375 54.019531 C 617.761719 51.304688 615.367188 49.8125 612.871094 49.8125 L 612.871094 46.414062 C 616.53125 46.414062 619.917969 48.433594 622.425781 52.101562 C 624.796875 55.570312 626.09375 60.152344 626.09375 65 C 626.09375 69.84375 624.796875 74.425781 622.425781 77.894531 C 619.917969 81.550781 616.53125 83.582031 612.871094 83.582031 Z M 612.871094 83.582031 " fill-opacity="1" fill-rule="nonzero"/></g><path fill="#db8e63" d="M 470.429688 271.527344 C 470.429688 271.527344 484.511719 242.171875 489.71875 237.460938 C 494.929688 232.753906 516.007812 223.3125 520.351562 223.953125 C 524.695312 224.601562 533.824219 228.878906 539.945312 234.246094 C 546.070312 239.617188 548.691406 247.277344 547.324219 248.179688 C 545.953125 249.082031 539.628906 248.417969 536.617188 245.160156 C 536.617188 245.160156 539.902344 252.171875 536.492188 253.308594 C 533.085938 254.449219 531.429688 247.90625 528.21875 244.324219 C 525.011719 240.757812 515.917969 238.855469 511.734375 241.804688 C 507.558594 244.757812 502.25 256.308594 502.25 256.308594 C 502.25 256.308594 502.203125 266.433594 502.292969 273.160156 C 502.386719 279.636719 501.40625 287.683594 493.449219 292.53125 C 485.511719 297.363281 470.429688 271.527344 470.429688 271.527344 Z M 470.429688 271.527344 " fill-opacity="1" fill-rule="nonzero"/><path fill="#563025" d="M 644.539062 119.699219 C 643.925781 169.363281 643.296875 238.933594 644.230469 257.074219 C 644.230469 257.074219 619.300781 262.15625 559.75 254.53125 C 559.097656 254.4375 558.472656 254.371094 557.855469 254.257812 C 501.257812 245.726562 549.054688 193.429688 549.054688 193.429688 L 606.019531 120.625 L 607.59375 118.617188 L 638.644531 64.667969 L 645.257812 67.210938 C 645.269531 67.199219 644.90625 89.863281 644.539062 119.699219 Z M 644.539062 119.699219 " fill-opacity="1" fill-rule="nonzero"/><path fill="#f9e4d9" d="M 641.699219 66.011719 C 641.699219 66.011719 642.535156 258.589844 638.121094 259.945312 C 633.710938 261.300781 453.398438 251.632812 449.832031 245.867188 C 446.265625 240.097656 570.792969 103.683594 570.792969 103.683594 Z M 641.699219 66.011719 " fill-opacity="1" fill-rule="nonzero"/><path fill="#f9e4d9" d="M 638.644531 64.65625 C 638.644531 64.65625 636.320312 88.847656 633.039062 119.960938 C 627.292969 174.835938 618.617188 251.257812 614.71875 254.519531 C 612.359375 256.480469 587.539062 255.851562 557.84375 254.246094 C 510.867188 251.738281 451.679688 246.777344 449.796875 245.867188 C 446.824219 244.371094 458.894531 151.976562 460.878906 124.023438 C 460.9375 123.371094 460.96875 122.746094 461.003906 122.164062 C 462.519531 96.726562 465.746094 68.726562 465.746094 68.726562 Z M 638.644531 64.65625 " fill-opacity="1" fill-rule="nonzero"/><path fill="#563025" d="M 599.75 256.308594 C 590.164062 256.308594 576.164062 255.820312 557.832031 254.828125 L 557.890625 253.6875 C 606.167969 256.296875 613.464844 254.839844 614.363281 254.085938 C 617.191406 251.726562 623.792969 202.816406 632.480469 119.90625 L 633.605469 120.019531 C 624.511719 206.886719 618.273438 252.285156 615.09375 254.953125 C 614.011719 255.863281 608.882812 256.308594 599.75 256.308594 Z M 599.75 256.308594 " fill-opacity="1" fill-rule="nonzero"/><path fill="#d54f56" d="M 590.9375 179.429688 C 590.9375 179.429688 590.289062 183.683594 589.480469 188.847656 C 588.667969 194.023438 587.234375 199.453125 587.234375 199.453125 C 587.234375 199.453125 603.273438 200.226562 604.378906 200.339844 C 604.378906 200.339844 607.25 188.710938 606.648438 179.03125 Z M 590.9375 179.429688 " fill-opacity="1" fill-rule="nonzero"/><path fill="#d54f56" d="M 474.855469 146.5625 C 474.855469 146.5625 474.203125 150.8125 473.394531 155.980469 C 472.585938 161.15625 471.148438 166.582031 471.148438 166.582031 C 471.148438 166.582031 487.1875 167.355469 488.296875 167.472656 C 488.296875 167.472656 491.167969 155.84375 490.5625 146.164062 Z M 474.855469 146.5625 " fill-opacity="1" fill-rule="nonzero"/><path fill="#563025" d="M 551.550781 160.378906 C 551.253906 160.378906 550.960938 160.21875 550.800781 159.945312 C 550.558594 159.523438 550.695312 158.988281 551.109375 158.75 L 574.898438 144.792969 C 575.320312 144.554688 575.855469 144.691406 576.09375 145.101562 C 576.335938 145.523438 576.199219 146.058594 575.789062 146.300781 L 551.996094 160.253906 C 551.847656 160.34375 551.699219 160.378906 551.550781 160.378906 Z M 551.550781 160.378906 " fill-opacity="1" fill-rule="nonzero"/><path fill="#563025" d="M 571.386719 162.351562 C 571.183594 162.351562 570.976562 162.285156 570.816406 162.136719 L 553.375 147.109375 C 553.011719 146.789062 552.964844 146.242188 553.285156 145.878906 C 553.605469 145.511719 554.152344 145.46875 554.515625 145.785156 L 571.957031 160.8125 C 572.324219 161.132812 572.367188 161.679688 572.046875 162.042969 C 571.878906 162.25 571.628906 162.351562 571.386719 162.351562 Z M 571.386719 162.351562 " fill-opacity="1" fill-rule="nonzero"/><path fill="#563025" d="M 495.851562 228.570312 C 495.554688 228.570312 495.261719 228.410156 495.101562 228.136719 C 494.859375 227.714844 494.996094 227.179688 495.410156 226.9375 L 519.199219 212.984375 C 519.621094 212.746094 520.15625 212.882812 520.398438 213.292969 C 520.636719 213.714844 520.5 214.25 520.089844 214.488281 L 496.296875 228.445312 C 496.160156 228.523438 496 228.570312 495.851562 228.570312 Z M 495.851562 228.570312 " fill-opacity="1" fill-rule="nonzero"/><path fill="#563025" d="M 515.6875 230.53125 C 515.484375 230.53125 515.277344 230.460938 515.117188 230.3125 L 497.675781 215.289062 C 497.3125 214.96875 497.265625 214.421875 497.585938 214.054688 C 497.90625 213.691406 498.453125 213.644531 498.816406 213.964844 L 516.257812 228.992188 C 516.625 229.3125 516.667969 229.859375 516.351562 230.222656 C 516.179688 230.429688 515.9375 230.53125 515.6875 230.53125 Z M 515.6875 230.53125 " fill-opacity="1" fill-rule="nonzero"/><path fill="#563025" d="M 467.148438 138.734375 L 619.925781 134.992188 L 619.953125 136.121094 L 467.175781 139.863281 Z M 467.148438 138.734375 " fill-opacity="1" fill-rule="nonzero"/><path fill="#563025" d="M 461.152344 234.628906 L 461.175781 233.5 L 601.15625 236.480469 L 601.132812 237.609375 Z M 461.152344 234.628906 " fill-opacity="1" fill-rule="nonzero"/><path fill="#563025" d="M 465.027344 205.785156 L 604.164062 204.511719 L 604.171875 205.640625 L 465.039062 206.914062 Z M 465.027344 205.785156 " fill-opacity="1" fill-rule="nonzero"/><path fill="#563025" d="M 467.5625 173.339844 L 611.375 169.523438 L 611.40625 170.652344 L 467.59375 174.464844 Z M 467.5625 173.339844 " fill-opacity="1" fill-rule="nonzero"/><path fill="#563025" d="M 572.980469 243.734375 L 587.921875 128.5 L 589.039062 128.644531 L 574.097656 243.878906 Z M 572.980469 243.734375 " fill-opacity="1" fill-rule="nonzero"/><path fill="#563025" d="M 527.53125 242.132812 L 542.472656 126.898438 L 543.59375 127.042969 L 528.652344 242.28125 Z M 527.53125 242.132812 " fill-opacity="1" fill-rule="nonzero"/><path fill="#563025" d="M 483.679688 241.820312 L 498.621094 126.582031 L 499.742188 126.726562 L 484.800781 241.964844 Z M 483.679688 241.820312 " fill-opacity="1" fill-rule="nonzero"/><path fill="#d54f56" d="M 645.269531 67.199219 C 645.269531 67.199219 644.90625 93.867188 644.550781 123.691406 L 633.046875 119.960938 L 606.03125 120.613281 L 460.914062 124.023438 C 460.96875 123.371094 461.003906 122.746094 461.039062 122.164062 C 462.554688 96.726562 465.78125 68.726562 465.78125 68.726562 L 638.65625 64.65625 Z M 645.269531 67.199219 " fill-opacity="1" fill-rule="nonzero"/><path fill="#d54f56" d="M 645.269531 67.199219 C 645.269531 67.199219 644.90625 93.867188 644.550781 123.691406 L 633.046875 119.960938 L 638.65625 64.65625 Z M 645.269531 67.199219 " fill-opacity="1" fill-rule="nonzero"/><path fill="#563025" d="M 632.46875 119.898438 L 638.074219 64.59375 L 639.199219 64.707031 L 633.589844 120.015625 Z M 632.46875 119.898438 " fill-opacity="1" fill-rule="nonzero"/><path fill="#db8e63" d="M 502.257812 256.296875 C 502.257812 256.296875 511.207031 251.964844 515.335938 248.613281 C 519.460938 245.261719 526.550781 239.09375 530.199219 244.335938 C 533.847656 249.582031 526.050781 256.652344 518.664062 261.703125 C 511.277344 266.753906 496.992188 290.339844 496.992188 290.339844 L 493.492188 268.566406 Z M 502.257812 256.296875 " fill-opacity="1" fill-rule="nonzero"/><path fill="#563025" d="M 489.789062 83.183594 C 489.789062 83.46875 489.761719 83.753906 489.703125 84.035156 C 489.648438 84.320312 489.566406 84.59375 489.457031 84.859375 C 489.34375 85.125 489.210938 85.375 489.050781 85.613281 C 488.890625 85.855469 488.710938 86.074219 488.507812 86.277344 C 488.304688 86.480469 488.082031 86.664062 487.84375 86.824219 C 487.605469 86.984375 487.351562 87.117188 487.085938 87.226562 C 486.820312 87.335938 486.546875 87.421875 486.265625 87.476562 C 485.984375 87.53125 485.699219 87.5625 485.410156 87.5625 C 485.125 87.5625 484.839844 87.53125 484.558594 87.476562 C 484.273438 87.421875 484 87.335938 483.734375 87.226562 C 483.46875 87.117188 483.21875 86.984375 482.980469 86.824219 C 482.738281 86.664062 482.519531 86.480469 482.316406 86.277344 C 482.113281 86.074219 481.929688 85.855469 481.769531 85.613281 C 481.613281 85.375 481.476562 85.125 481.367188 84.859375 C 481.257812 84.59375 481.171875 84.320312 481.117188 84.035156 C 481.0625 83.753906 481.035156 83.46875 481.035156 83.183594 C 481.035156 82.894531 481.0625 82.609375 481.117188 82.328125 C 481.171875 82.046875 481.257812 81.773438 481.367188 81.507812 C 481.476562 81.242188 481.613281 80.988281 481.769531 80.75 C 481.929688 80.511719 482.113281 80.289062 482.316406 80.085938 C 482.519531 79.882812 482.738281 79.703125 482.980469 79.542969 C 483.21875 79.382812 483.46875 79.25 483.734375 79.136719 C 484 79.027344 484.273438 78.945312 484.558594 78.890625 C 484.839844 78.832031 485.125 78.804688 485.410156 78.804688 C 485.699219 78.804688 485.984375 78.832031 486.265625 78.890625 C 486.546875 78.945312 486.820312 79.027344 487.085938 79.136719 C 487.351562 79.25 487.605469 79.382812 487.84375 79.542969 C 488.082031 79.703125 488.304688 79.882812 488.507812 80.085938 C 488.710938 80.289062 488.890625 80.511719 489.050781 80.75 C 489.210938 80.988281 489.34375 81.242188 489.453125 81.507812 C 489.566406 81.773438 489.648438 82.046875 489.703125 82.328125 C 489.761719 82.609375 489.789062 82.894531 489.789062 83.183594 Z M 489.789062 83.183594 " fill-opacity="1" fill-rule="nonzero"/><path fill="#563025" d="M 521.660156 82.613281 C 521.660156 82.898438 521.632812 83.183594 521.578125 83.46875 C 521.523438 83.75 521.4375 84.023438 521.328125 84.289062 C 521.21875 84.554688 521.082031 84.804688 520.925781 85.046875 C 520.765625 85.285156 520.582031 85.503906 520.378906 85.707031 C 520.175781 85.910156 519.957031 86.09375 519.714844 86.253906 C 519.476562 86.414062 519.226562 86.546875 518.960938 86.65625 C 518.695312 86.769531 518.421875 86.851562 518.136719 86.90625 C 517.855469 86.960938 517.570312 86.992188 517.285156 86.992188 C 516.996094 86.992188 516.710938 86.960938 516.429688 86.90625 C 516.148438 86.851562 515.875 86.769531 515.609375 86.65625 C 515.34375 86.546875 515.089844 86.414062 514.851562 86.253906 C 514.613281 86.09375 514.390625 85.910156 514.1875 85.707031 C 513.984375 85.503906 513.804688 85.285156 513.644531 85.046875 C 513.484375 84.804688 513.351562 84.554688 513.238281 84.289062 C 513.128906 84.023438 513.046875 83.75 512.992188 83.46875 C 512.933594 83.183594 512.90625 82.898438 512.90625 82.613281 C 512.90625 82.324219 512.933594 82.039062 512.992188 81.757812 C 513.046875 81.476562 513.128906 81.203125 513.238281 80.9375 C 513.351562 80.671875 513.484375 80.417969 513.644531 80.179688 C 513.804688 79.941406 513.984375 79.71875 514.1875 79.515625 C 514.390625 79.3125 514.613281 79.132812 514.851562 78.972656 C 515.089844 78.8125 515.34375 78.679688 515.609375 78.566406 C 515.875 78.457031 516.148438 78.375 516.429688 78.320312 C 516.710938 78.261719 516.996094 78.234375 517.285156 78.234375 C 517.570312 78.234375 517.855469 78.261719 518.136719 78.320312 C 518.421875 78.375 518.695312 78.457031 518.960938 78.566406 C 519.226562 78.679688 519.476562 78.8125 519.714844 78.972656 C 519.957031 79.132812 520.175781 79.3125 520.378906 79.515625 C 520.582031 79.71875 520.765625 79.941406 520.925781 80.179688 C 521.082031 80.417969 521.21875 80.671875 521.328125 80.9375 C 521.4375 81.203125 521.523438 81.476562 521.578125 81.757812 C 521.632812 82.039062 521.660156 82.324219 521.660156 82.613281 Z M 521.660156 82.613281 " fill-opacity="1" fill-rule="nonzero"/><path fill="#563025" d="M 553.523438 82.042969 C 553.523438 82.332031 553.496094 82.613281 553.441406 82.898438 C 553.382812 83.179688 553.300781 83.453125 553.191406 83.71875 C 553.082031 83.984375 552.945312 84.234375 552.785156 84.476562 C 552.625 84.714844 552.445312 84.933594 552.242188 85.136719 C 552.039062 85.339844 551.816406 85.523438 551.578125 85.683594 C 551.339844 85.84375 551.085938 85.976562 550.820312 86.085938 C 550.554688 86.199219 550.28125 86.28125 550 86.335938 C 549.71875 86.394531 549.433594 86.421875 549.148438 86.421875 C 548.859375 86.421875 548.574219 86.394531 548.292969 86.335938 C 548.011719 86.28125 547.738281 86.199219 547.472656 86.085938 C 547.207031 85.976562 546.953125 85.84375 546.714844 85.683594 C 546.476562 85.523438 546.253906 85.339844 546.050781 85.136719 C 545.847656 84.933594 545.667969 84.714844 545.507812 84.476562 C 545.347656 84.234375 545.210938 83.984375 545.101562 83.71875 C 544.992188 83.453125 544.910156 83.179688 544.851562 82.898438 C 544.796875 82.613281 544.769531 82.332031 544.769531 82.042969 C 544.769531 81.753906 544.796875 81.46875 544.851562 81.1875 C 544.910156 80.90625 544.992188 80.632812 545.101562 80.367188 C 545.210938 80.101562 545.347656 79.847656 545.507812 79.609375 C 545.667969 79.371094 545.847656 79.148438 546.050781 78.945312 C 546.253906 78.742188 546.476562 78.5625 546.714844 78.402344 C 546.953125 78.242188 547.207031 78.109375 547.472656 77.996094 C 547.738281 77.886719 548.011719 77.804688 548.292969 77.75 C 548.574219 77.691406 548.859375 77.664062 549.148438 77.664062 C 549.433594 77.664062 549.71875 77.691406 550 77.75 C 550.28125 77.804688 550.554688 77.886719 550.820312 77.996094 C 551.085938 78.109375 551.339844 78.242188 551.578125 78.402344 C 551.816406 78.5625 552.039062 78.742188 552.242188 78.945312 C 552.445312 79.148438 552.625 79.371094 552.785156 79.609375 C 552.945312 79.847656 553.082031 80.101562 553.191406 80.367188 C 553.300781 80.632812 553.382812 80.90625 553.441406 81.1875 C 553.496094 81.46875 553.523438 81.753906 553.523438 82.042969 Z M 553.523438 82.042969 " fill-opacity="1" fill-rule="nonzero"/><path fill="#563025" d="M 585.398438 81.460938 C 585.398438 81.75 585.371094 82.035156 585.3125 82.316406 C 585.257812 82.597656 585.175781 82.871094 585.066406 83.136719 C 584.953125 83.402344 584.820312 83.65625 584.660156 83.894531 C 584.5 84.132812 584.320312 84.355469 584.117188 84.558594 C 583.914062 84.761719 583.691406 84.941406 583.453125 85.101562 C 583.214844 85.261719 582.960938 85.394531 582.695312 85.507812 C 582.429688 85.617188 582.15625 85.699219 581.875 85.753906 C 581.59375 85.8125 581.308594 85.839844 581.019531 85.839844 C 580.734375 85.839844 580.449219 85.8125 580.167969 85.753906 C 579.882812 85.699219 579.609375 85.617188 579.34375 85.507812 C 579.078125 85.394531 578.828125 85.261719 578.589844 85.101562 C 578.347656 84.941406 578.128906 84.761719 577.925781 84.558594 C 577.722656 84.355469 577.539062 84.132812 577.378906 83.894531 C 577.222656 83.65625 577.085938 83.402344 576.976562 83.136719 C 576.867188 82.871094 576.78125 82.597656 576.726562 82.316406 C 576.671875 82.035156 576.644531 81.75 576.644531 81.460938 C 576.644531 81.175781 576.671875 80.890625 576.726562 80.605469 C 576.78125 80.324219 576.867188 80.050781 576.976562 79.785156 C 577.085938 79.519531 577.222656 79.269531 577.378906 79.027344 C 577.539062 78.789062 577.722656 78.570312 577.925781 78.367188 C 578.128906 78.164062 578.347656 77.980469 578.589844 77.820312 C 578.828125 77.660156 579.078125 77.527344 579.34375 77.417969 C 579.609375 77.304688 579.882812 77.222656 580.167969 77.167969 C 580.449219 77.113281 580.734375 77.082031 581.019531 77.082031 C 581.308594 77.082031 581.59375 77.113281 581.875 77.167969 C 582.15625 77.222656 582.429688 77.304688 582.695312 77.417969 C 582.960938 77.527344 583.214844 77.660156 583.453125 77.820312 C 583.691406 77.980469 583.914062 78.164062 584.117188 78.367188 C 584.320312 78.570312 584.5 78.789062 584.660156 79.027344 C 584.820312 79.269531 584.953125 79.519531 585.066406 79.785156 C 585.175781 80.050781 585.257812 80.324219 585.3125 80.605469 C 585.371094 80.890625 585.398438 81.175781 585.398438 81.460938 Z M 585.398438 81.460938 " fill-opacity="1" fill-rule="nonzero"/><path fill="#563025" d="M 617.261719 80.890625 C 617.261719 81.179688 617.230469 81.464844 617.175781 81.746094 C 617.121094 82.027344 617.035156 82.300781 616.925781 82.566406 C 616.816406 82.832031 616.683594 83.085938 616.523438 83.324219 C 616.363281 83.5625 616.179688 83.785156 615.976562 83.988281 C 615.773438 84.191406 615.554688 84.371094 615.316406 84.53125 C 615.074219 84.691406 614.824219 84.824219 614.558594 84.9375 C 614.292969 85.046875 614.019531 85.128906 613.738281 85.183594 C 613.453125 85.242188 613.171875 85.269531 612.882812 85.269531 C 612.59375 85.269531 612.308594 85.242188 612.027344 85.183594 C 611.746094 85.128906 611.472656 85.046875 611.207031 84.9375 C 610.941406 84.824219 610.691406 84.691406 610.449219 84.53125 C 610.210938 84.371094 609.992188 84.191406 609.789062 83.988281 C 609.582031 83.785156 609.402344 83.5625 609.242188 83.324219 C 609.082031 83.085938 608.949219 82.832031 608.839844 82.566406 C 608.726562 82.300781 608.644531 82.027344 608.589844 81.746094 C 608.53125 81.464844 608.503906 81.179688 608.503906 80.890625 C 608.503906 80.605469 608.53125 80.320312 608.589844 80.039062 C 608.644531 79.753906 608.726562 79.480469 608.839844 79.214844 C 608.949219 78.949219 609.082031 78.699219 609.242188 78.457031 C 609.402344 78.21875 609.582031 78 609.789062 77.796875 C 609.992188 77.59375 610.210938 77.410156 610.449219 77.25 C 610.691406 77.089844 610.941406 76.957031 611.207031 76.847656 C 611.472656 76.738281 611.746094 76.652344 612.027344 76.597656 C 612.308594 76.542969 612.59375 76.511719 612.882812 76.511719 C 613.171875 76.511719 613.453125 76.542969 613.738281 76.597656 C 614.019531 76.652344 614.292969 76.738281 614.558594 76.847656 C 614.824219 76.957031 615.074219 77.089844 615.316406 77.25 C 615.554688 77.410156 615.773438 77.59375 615.976562 77.796875 C 616.179688 78 616.363281 78.21875 616.523438 78.457031 C 616.683594 78.699219 616.816406 78.949219 616.925781 79.214844 C 617.035156 79.480469 617.121094 79.753906 617.175781 80.039062 C 617.230469 80.320312 617.261719 80.605469 617.261719 80.890625 Z M 617.261719 80.890625 " fill-opacity="1" fill-rule="nonzero"/><path fill="#563025" d="M 485.375 84.539062 C 481.71875 84.539062 478.332031 82.523438 475.824219 78.851562 C 473.453125 75.382812 472.152344 70.800781 472.152344 65.957031 C 472.152344 61.109375 473.453125 56.527344 475.824219 53.0625 C 478.320312 49.390625 481.71875 47.371094 485.375 47.371094 L 485.375 50.769531 C 482.878906 50.769531 480.484375 52.261719 478.640625 54.976562 C 476.65625 57.882812 475.5625 61.78125 475.5625 65.957031 C 475.5625 70.128906 476.65625 74.027344 478.640625 76.933594 C 480.484375 79.648438 482.878906 81.140625 485.375 81.140625 Z M 485.375 84.539062 " fill-opacity="1" fill-rule="nonzero"/><g clip-path="url(#b6006362bb)"><path fill="#563025" d="M 517.546875 83.582031 C 513.886719 83.582031 510.5 81.5625 507.992188 77.894531 C 505.621094 74.425781 504.324219 69.84375 504.324219 65 C 504.324219 60.152344 505.621094 55.570312 507.992188 52.101562 C 510.492188 48.433594 513.886719 46.414062 517.546875 46.414062 L 517.546875 49.8125 C 515.050781 49.8125 512.65625 51.304688 510.808594 54.019531 C 508.824219 56.925781 507.730469 60.824219 507.730469 65 C 507.730469 69.171875 508.824219 73.070312 510.808594 75.976562 C 512.65625 78.691406 515.050781 80.183594 517.546875 80.183594 Z M 517.546875 83.582031 " fill-opacity="1" fill-rule="nonzero"/></g><g clip-path="url(#6f5f6dca23)"><path fill="#563025" d="M 549.386719 83.582031 C 545.726562 83.582031 542.339844 81.5625 539.832031 77.894531 C 537.460938 74.425781 536.164062 69.84375 536.164062 65 C 536.164062 60.152344 537.460938 55.570312 539.832031 52.101562 C 542.328125 48.433594 545.726562 46.414062 549.386719 46.414062 L 549.386719 49.8125 C 546.890625 49.8125 544.496094 51.304688 542.648438 54.019531 C 540.664062 56.925781 539.570312 60.824219 539.570312 65 C 539.570312 69.171875 540.664062 73.070312 542.648438 75.976562 C 544.496094 78.691406 546.890625 80.183594 549.386719 80.183594 Z M 549.386719 83.582031 " fill-opacity="1" fill-rule="nonzero"/></g><g clip-path="url(#2fdffa1aff)"><path fill="#563025" d="M 580.757812 83.582031 C 577.097656 83.582031 573.714844 81.5625 571.207031 77.894531 C 568.835938 74.425781 567.535156 69.84375 567.535156 65 C 567.535156 60.152344 568.835938 55.570312 571.207031 52.101562 C 573.703125 48.433594 577.097656 46.414062 580.757812 46.414062 L 580.757812 49.8125 C 578.261719 49.8125 575.867188 51.304688 574.019531 54.019531 C 572.039062 56.925781 570.941406 60.824219 570.941406 65 C 570.941406 69.171875 572.039062 73.070312 574.019531 75.976562 C 575.867188 78.691406 578.261719 80.183594 580.757812 80.183594 Z M 580.757812 83.582031 " fill-opacity="1" fill-rule="nonzero"/></g><g clip-path="url(#33b23e8983)"><path fill="#563025" d="M 612.871094 83.582031 C 609.210938 83.582031 605.828125 81.5625 603.316406 77.894531 C 600.945312 74.425781 599.648438 69.84375 599.648438 65 C 599.648438 60.152344 600.945312 55.570312 603.316406 52.101562 C 605.816406 48.433594 609.210938 46.414062 612.871094 46.414062 L 612.871094 49.8125 C 610.375 49.8125 607.980469 51.304688 606.132812 54.019531 C 604.152344 56.925781 603.054688 60.824219 603.054688 65 C 603.054688 69.171875 604.152344 73.070312 606.132812 75.976562 C 607.980469 78.691406 610.375 80.183594 612.871094 80.183594 Z M 612.871094 83.582031 " fill-opacity="1" fill-rule="nonzero"/></g><path fill="#563025" d="M 385.117188 70.503906 C 397.644531 72.386719 418.460938 76.070312 424.410156 101.742188 C 428.503906 119.394531 412.363281 142.605469 412.363281 142.605469 C 412.363281 142.605469 370.457031 68.304688 385.117188 70.503906 Z M 385.117188 70.503906 " fill-opacity="1" fill-rule="nonzero"/><path fill="#db8e63" d="M 300.894531 205.789062 C 300.894531 205.789062 310.046875 188.027344 313.378906 169.160156 C 316.707031 150.289062 305.886719 76.195312 342.515625 74.246094 C 379.140625 72.304688 408.007812 91.449219 412.714844 111.433594 C 417.433594 131.421875 409.660156 154.453125 409.386719 156.675781 C 409.113281 158.898438 397.144531 212.8125 390.519531 216.335938 C 376.964844 223.554688 361.78125 215.09375 361.78125 215.09375 L 357.242188 237.632812 Z M 300.894531 205.789062 " fill-opacity="1" fill-rule="nonzero"/><path fill="#563025" d="M 413.890625 115.355469 C 413.890625 115.355469 420.820312 128.195312 409.386719 130.074219 C 398.191406 131.910156 394.304688 153.082031 390.839844 153.640625 C 387.375 154.199219 379.574219 135.296875 369.863281 141.125 C 360.152344 146.949219 353.710938 179.328125 339.414062 182.519531 C 325.121094 185.714844 315.054688 184.277344 309.089844 182.328125 C 303.128906 180.378906 292.300781 148.328125 297.851562 113.363281 C 303.402344 78.394531 318.667969 61.191406 355.292969 62.570312 C 391.921875 63.949219 414.617188 91.734375 413.890625 115.355469 Z M 413.890625 115.355469 " fill-opacity="1" fill-rule="nonzero"/><path fill="#db8e63" d="M 387.078125 150.824219 C 387.078125 150.824219 384.054688 137.898438 374.992188 141.773438 C 365.929688 145.660156 367.960938 164.164062 372.769531 175.074219 Z M 387.078125 150.824219 " fill-opacity="1" fill-rule="nonzero"/><path fill="#563025" d="M 372.40625 175.234375 C 368.871094 167.230469 366.726562 154.65625 369.691406 147.144531 C 370.796875 144.328125 372.53125 142.398438 374.832031 141.417969 C 377.148438 140.429688 379.3125 140.417969 381.285156 141.375 C 385.960938 143.644531 387.851562 150.519531 387.933594 150.8125 L 387.167969 151.019531 C 387.144531 150.949219 385.285156 144.191406 380.945312 142.082031 C 379.1875 141.226562 377.238281 141.25 375.152344 142.148438 C 373.054688 143.050781 371.460938 144.828125 370.433594 147.441406 C 367.550781 154.757812 369.667969 167.070312 373.136719 174.925781 Z M 372.40625 175.234375 " fill-opacity="1" fill-rule="nonzero"/><path fill="#563025" d="M 382.757812 152.933594 C 382.757812 152.933594 381.230469 146.925781 376.234375 149.058594 C 371.242188 151.203125 375.90625 163.824219 378.550781 169.84375 Z M 382.757812 152.933594 " fill-opacity="1" fill-rule="nonzero"/><path fill="#efbf62" d="M 420.5 379.359375 C 419.144531 391.171875 400.800781 407.589844 404.003906 484.410156 C 403.742188 484.46875 368.3125 492.390625 328.472656 489.746094 C 279.191406 486.472656 224.082031 472.28125 231.367188 469.78125 C 231.34375 465.988281 231.265625 462.097656 231.152344 458.140625 C 229.851562 412.699219 219.035156 327.007812 227.265625 279.394531 C 235.472656 231.785156 290.007812 207.136719 290.007812 207.136719 C 290.007812 207.136719 318.996094 208.628906 332.414062 212.972656 C 345.832031 217.292969 381.332031 240.78125 381.332031 240.78125 L 398.03125 251.144531 C 399.320312 263.261719 418.09375 282.792969 422.574219 314.101562 C 427.042969 345.488281 422.65625 360.742188 420.5 379.359375 Z M 420.5 379.359375 " fill-opacity="1" fill-rule="nonzero"/><path fill="#563025" d="M 311.0625 96.191406 C 311.0625 96.191406 281.925781 86.613281 265.828125 107.707031 C 249.734375 128.796875 260.003906 157.109375 263.058594 187.355469 C 266.113281 217.601562 268.882812 237.316406 246.960938 243.140625 C 246.960938 243.140625 256.539062 245.363281 263.890625 240.507812 C 263.890625 240.507812 256.402344 250.632812 249.324219 254.941406 C 249.324219 254.941406 263.332031 263.683594 274.574219 255.214844 C 285.8125 246.742188 294.273438 232.730469 298.71875 230.792969 C 303.152344 228.855469 311.347656 215.527344 309.957031 200.820312 C 308.566406 186.113281 294.417969 125.46875 307.1875 113.542969 C 319.957031 101.617188 311.0625 96.191406 311.0625 96.191406 Z M 311.0625 96.191406 " fill-opacity="1" fill-rule="nonzero"/><path fill="#d54f56" d="M 303.550781 118.539062 L 301.886719 118.023438 C 304.109375 110.863281 304.007812 104.949219 303.515625 101.253906 C 302.992188 97.242188 301.933594 94.878906 301.921875 94.859375 L 303.492188 94.128906 C 303.699219 94.539062 308.007812 104.160156 303.550781 118.539062 Z M 303.550781 118.539062 " fill-opacity="1" fill-rule="nonzero"/><path fill="#f9e4d9" d="M 304.382812 175.441406 C 301.933594 164.710938 299.308594 152.320312 298.398438 141.671875 C 297.347656 129.449219 298.71875 121.742188 302.582031 118.128906 L 302.878906 118.445312 C 299.117188 121.957031 297.792969 129.550781 298.832031 141.636719 C 299.742188 152.261719 302.367188 164.644531 304.816406 175.347656 Z M 304.382812 175.441406 " fill-opacity="1" fill-rule="nonzero"/><path fill="#db8e63" d="M 530.734375 234.226562 C 530.734375 234.226562 518.789062 220.417969 517.613281 209.164062 C 516.453125 197.914062 516.316406 184.742188 516.839844 180.949219 C 517.375 177.152344 520.796875 165.875 523.542969 163.582031 C 526.277344 161.292969 533.574219 162.191406 535.25 164.894531 C 535.25 164.894531 541.726562 164.050781 543.835938 167.390625 C 543.835938 167.390625 546.890625 165.660156 549.75 163.765625 C 552.625 161.875 555.347656 162.261719 555.347656 162.261719 C 555.347656 162.261719 556.464844 159 559.269531 159.96875 C 562.085938 160.9375 560 172.875 559.222656 180.070312 C 558.449219 187.261719 557.105469 202.222656 557.480469 207.535156 C 557.855469 212.835938 556.683594 227.292969 556.683594 227.292969 Z M 530.734375 234.226562 " fill-opacity="1" fill-rule="nonzero"/><path fill="#563025" d="M 525.402344 189.292969 L 524.296875 189.03125 C 524.453125 188.390625 528.078125 173.332031 529.355469 169.898438 C 530.703125 166.261719 534.851562 164.460938 535.023438 164.382812 L 535.46875 165.417969 C 535.433594 165.429688 531.589844 167.117188 530.417969 170.289062 C 529.175781 173.660156 525.445312 189.132812 525.402344 189.292969 Z M 525.402344 189.292969 " fill-opacity="1" fill-rule="nonzero"/><path fill="#563025" d="M 536.015625 191.027344 L 534.929688 190.695312 C 534.964844 190.582031 538.363281 179.535156 539.410156 175.816406 C 540.484375 172.03125 543.230469 167.3125 543.34375 167.105469 L 544.324219 167.675781 C 544.300781 167.722656 541.53125 172.464844 540.503906 176.125 C 539.445312 179.851562 536.046875 190.921875 536.015625 191.027344 Z M 536.015625 191.027344 " fill-opacity="1" fill-rule="nonzero"/><path fill="#563025" d="M 547.21875 194.390625 L 546.148438 194.023438 C 546.207031 193.875 551.335938 178.769531 552.167969 172.292969 C 553.023438 165.660156 554.777344 162.148438 554.859375 162.011719 L 555.871094 162.523438 L 555.371094 162.261719 L 555.871094 162.523438 C 555.851562 162.558594 554.128906 166.023438 553.296875 172.441406 C 552.441406 179.03125 547.425781 193.773438 547.21875 194.390625 Z M 547.21875 194.390625 " fill-opacity="1" fill-rule="nonzero"/><path fill="#db8e63" d="M 563.953125 257.550781 L 556.167969 215.355469 L 528.160156 222.355469 L 521.992188 277.878906 L 522.1875 277.84375 L 519.003906 300.453125 C 519.003906 300.453125 501.324219 293.671875 479.746094 283.386719 C 482.332031 294 488.648438 314.988281 472.917969 356.796875 C 508.371094 367.140625 546.914062 380.476562 562.324219 371.949219 C 576.632812 364.0625 572.039062 295.550781 563.953125 257.550781 Z M 563.953125 257.550781 " fill-opacity="1" fill-rule="nonzero"/><path fill="#563025" d="M 535.742188 324.246094 C 532 310.121094 518.824219 301.011719 518.6875 300.921875 L 519.324219 299.988281 C 519.460938 300.078125 532.980469 309.402344 536.835938 323.953125 Z M 535.742188 324.246094 " fill-opacity="1" fill-rule="nonzero"/><path fill="#efbf62" d="M 474.820312 364.003906 C 442.308594 354.527344 414.242188 343.730469 414.242188 343.730469 C 414.242188 343.730469 351.898438 266.410156 381.320312 240.792969 C 381.320312 240.792969 428.390625 258.476562 464.800781 274.4375 C 472.140625 277.652344 478.492188 280.558594 483.929688 283.191406 C 486.515625 293.808594 490.550781 322.195312 474.820312 364.003906 Z M 474.820312 364.003906 " fill-opacity="1" fill-rule="nonzero"/><path fill="#563025" d="M 384.164062 331.453125 L 384.578125 330.402344 L 423.417969 345.769531 L 423.003906 346.820312 Z M 384.164062 331.453125 " fill-opacity="1" fill-rule="nonzero"/><path fill="#f9e4d9" d="M 602.78125 284.527344 C 619.496094 295.390625 642.554688 290.160156 654.171875 271.5625 C 666.40625 251.964844 660.535156 226.550781 641.289062 216.234375 C 622.902344 206.371094 600.378906 214.796875 590.675781 233.804688 C 581.417969 251.898438 586.753906 274.105469 602.78125 284.527344 Z M 602.78125 284.527344 " fill-opacity="1" fill-rule="nonzero"/><path fill="#563025" d="M 589.605469 277.527344 C 596.332031 290.476562 609.234375 299.003906 623.746094 299.691406 C 631.097656 300.042969 638.589844 298.355469 645.40625 294.753906 C 656.109375 289.097656 664.238281 279.351562 668.046875 267.277344 C 671.945312 254.929688 670.757812 241.953125 664.707031 231 C 656.691406 216.519531 641.4375 208.539062 625.480469 209.984375 L 625.386719 214.296875 L 625.480469 209.984375 C 617.945312 210.671875 610.636719 213.453125 604.332031 217.957031 C 595.007812 224.613281 588.53125 234.453125 585.875 245.648438 C 583.265625 256.652344 584.601562 267.890625 589.605469 277.527344 Z M 607.195312 223.335938 C 612.824219 219.390625 619.074219 217.203125 625.34375 216.691406 C 638.488281 215.628906 651.550781 222.003906 658.585938 234.785156 C 669.199219 254.0625 661.46875 278.78125 642.386719 289.109375 C 636.367188 292.371094 629.992188 293.75 623.859375 293.523438 C 611.71875 293.066406 600.398438 286.214844 594.335938 274.585938 C 585.386719 257.425781 590.789062 234.839844 607.195312 223.335938 Z M 607.195312 223.335938 " fill-opacity="1" fill-rule="nonzero"/><path fill="#d54f56" d="M 604.195312 282.019531 C 619.632812 291.984375 640.824219 287.058594 651.425781 269.921875 C 662.550781 251.953125 657.171875 228.71875 639.605469 219.210938 C 622.765625 210.089844 602.007812 217.726562 593.023438 235.195312 C 584.417969 251.898438 589.355469 272.429688 604.195312 282.019531 Z M 604.195312 282.019531 " fill-opacity="1" fill-rule="nonzero"/><path fill="#f9e4d9" d="M 621.855469 205.515625 C 614.320312 206.199219 607.011719 208.984375 600.707031 213.484375 C 591.382812 220.144531 584.90625 229.984375 582.25 241.179688 C 579.652344 252.160156 580.976562 263.398438 585.980469 273.046875 C 592.707031 285.996094 605.609375 294.523438 620.121094 295.210938 C 627.472656 295.5625 634.964844 293.875 641.78125 290.273438 C 652.484375 284.617188 660.613281 274.871094 664.421875 262.796875 C 668.320312 250.449219 667.132812 237.472656 661.082031 226.519531 C 653.066406 212.0625 637.8125 204.070312 621.855469 205.515625 Z M 603.582031 218.867188 C 609.210938 214.921875 615.460938 212.734375 621.730469 212.21875 C 634.871094 211.160156 647.9375 217.535156 654.96875 230.3125 C 665.582031 249.59375 657.855469 274.3125 638.769531 284.640625 C 632.753906 287.902344 626.378906 289.28125 620.246094 289.050781 C 608.105469 288.597656 596.785156 281.746094 590.722656 270.117188 C 581.773438 252.945312 587.175781 230.359375 603.582031 218.867188 Z M 603.582031 218.867188 " fill-opacity="1" fill-rule="nonzero"/><path fill="#563025" d="M 622.023438 295.722656 C 621.386719 295.722656 620.738281 295.710938 620.097656 295.675781 C 612.917969 295.335938 605.929688 293.066406 599.875 289.121094 C 593.867188 285.199219 588.921875 279.714844 585.570312 273.261719 C 580.53125 263.535156 579.183594 252.113281 581.796875 241.078125 C 584.484375 229.710938 591.109375 219.78125 600.421875 213.109375 C 606.839844 208.527344 614.226562 205.734375 621.796875 205.050781 C 629.753906 204.332031 637.652344 205.914062 644.640625 209.632812 C 651.6875 213.382812 657.5 219.140625 661.457031 226.289062 C 667.589844 237.371094 668.796875 250.378906 664.84375 262.921875 C 661.023438 275.039062 652.894531 284.890625 641.984375 290.660156 C 635.738281 294 628.875 295.722656 622.023438 295.722656 Z M 621.867188 205.652344 L 621.898438 205.984375 C 614.488281 206.65625 607.25 209.382812 600.96875 213.875 C 591.828125 220.40625 585.339844 230.15625 582.695312 241.304688 C 580.132812 252.125 581.441406 263.332031 586.390625 272.851562 C 589.660156 279.167969 594.507812 284.527344 600.378906 288.367188 C 606.292969 292.234375 613.132812 294.445312 620.144531 294.777344 C 627.460938 295.117188 634.871094 293.429688 641.5625 289.894531 C 652.269531 284.242188 660.226562 274.574219 663.976562 262.683594 C 667.851562 250.378906 666.679688 237.621094 660.671875 226.769531 C 656.792969 219.78125 651.105469 214.136719 644.21875 210.476562 C 637.378906 206.839844 629.664062 205.289062 621.886719 205.996094 Z M 621.546875 289.542969 C 621.101562 289.542969 620.667969 289.53125 620.222656 289.519531 C 614.101562 289.292969 608.128906 287.433594 602.953125 284.171875 C 597.652344 280.832031 593.273438 276.042969 590.3125 270.34375 C 581.167969 252.796875 586.878906 230.019531 603.308594 218.503906 C 608.835938 214.625 615.195312 212.300781 621.683594 211.777344 C 635.613281 210.660156 648.53125 217.683594 655.371094 230.109375 C 660.476562 239.378906 661.605469 250.21875 658.550781 260.640625 C 655.484375 271.097656 648.347656 279.988281 638.988281 285.0625 C 633.539062 287.992188 627.542969 289.542969 621.546875 289.542969 Z M 603.582031 218.867188 L 603.84375 219.242188 C 587.78125 230.507812 582.195312 252.761719 591.132812 269.910156 C 594.027344 275.472656 598.289062 280.136719 603.453125 283.398438 C 608.492188 286.578125 614.308594 288.378906 620.269531 288.609375 C 626.527344 288.847656 632.855469 287.34375 638.554688 284.253906 C 647.707031 279.292969 654.675781 270.59375 657.671875 260.378906 C 660.660156 250.199219 659.566406 239.605469 654.570312 230.542969 C 647.902344 218.433594 635.328125 211.59375 621.761719 212.6875 C 615.4375 213.199219 609.234375 215.457031 603.84375 219.242188 Z M 603.582031 218.867188 " fill-opacity="1" fill-rule="nonzero"/><path fill="#f9e4d9" d="M 621.546875 222.859375 C 622.058594 222.824219 622.480469 222.355469 622.492188 221.808594 L 622.617188 215.59375 C 622.628906 215.046875 622.21875 214.625 621.707031 214.671875 C 621.191406 214.707031 620.769531 215.183594 620.761719 215.730469 L 620.632812 221.921875 C 620.632812 222.480469 621.035156 222.890625 621.546875 222.859375 Z M 621.546875 222.859375 " fill-opacity="1" fill-rule="nonzero"/><path fill="#f9e4d9" d="M 649.828125 251.804688 L 656.109375 251.691406 C 656.667969 251.679688 657.148438 251.222656 657.160156 250.652344 C 657.183594 250.09375 656.738281 249.652344 656.179688 249.660156 L 649.886719 249.796875 C 649.339844 249.808594 648.871094 250.265625 648.859375 250.824219 C 648.847656 251.371094 649.269531 251.804688 649.828125 251.804688 Z M 649.828125 251.804688 " fill-opacity="1" fill-rule="nonzero"/><path fill="#f9e4d9" d="M 620.257812 286.773438 C 620.75 286.785156 621.160156 286.386719 621.171875 285.871094 L 621.296875 280.046875 C 621.308594 279.53125 620.90625 279.097656 620.417969 279.089844 C 619.917969 279.078125 619.515625 279.488281 619.503906 280 L 619.390625 285.804688 C 619.378906 286.328125 619.769531 286.761719 620.257812 286.773438 Z M 620.257812 286.773438 " fill-opacity="1" fill-rule="nonzero"/><path fill="#f9e4d9" d="M 589.238281 252.933594 L 594.449219 252.832031 C 594.917969 252.820312 595.292969 252.398438 595.292969 251.894531 C 595.292969 251.382812 594.929688 250.984375 594.460938 250.996094 L 589.25 251.109375 C 588.796875 251.121094 588.429688 251.53125 588.417969 252.042969 C 588.417969 252.535156 588.785156 252.933594 589.238281 252.933594 Z M 589.238281 252.933594 " fill-opacity="1" fill-rule="nonzero"/><path fill="#f9e4d9" d="M 621.023438 252.179688 C 621.023438 252.179688 621.035156 252.179688 621.023438 252.179688 L 639.648438 251.691406 C 640.253906 251.679688 640.765625 251.15625 640.777344 250.539062 C 640.789062 249.925781 640.308594 249.433594 639.707031 249.445312 C 639.707031 249.445312 639.707031 249.445312 639.695312 249.445312 L 621.042969 249.992188 C 620.476562 250.003906 619.996094 250.515625 619.996094 251.109375 C 619.996094 251.714844 620.453125 252.191406 621.023438 252.179688 Z M 621.023438 252.179688 " fill-opacity="1" fill-rule="nonzero"/><path fill="#f9e4d9" d="M 621.089844 252.433594 C 621.203125 252.433594 621.308594 252.398438 621.410156 252.339844 C 621.738281 252.148438 621.867188 251.726562 621.695312 251.382812 L 611.34375 231.054688 C 611.171875 230.726562 610.785156 230.609375 610.464844 230.828125 C 610.148438 231.03125 610.03125 231.464844 610.191406 231.796875 L 620.507812 252.089844 C 620.632812 252.308594 620.863281 252.433594 621.089844 252.433594 Z M 621.089844 252.433594 " fill-opacity="1" fill-rule="nonzero"/><path fill="#f9e4d9" d="M 619.78125 253.503906 C 620.875 254.152344 622.289062 253.730469 622.960938 252.558594 C 623.632812 251.382812 623.277344 249.890625 622.171875 249.238281 C 621.078125 248.589844 619.652344 249.023438 618.992188 250.199219 C 618.34375 251.382812 618.695312 252.855469 619.78125 253.503906 Z M 619.78125 253.503906 " fill-opacity="1" fill-rule="nonzero"/><g fill="#000000" fill-opacity="1"><g transform="translate(218.890192, 171.464662)"><g><path d="M 0.125 0 C 0.113281 0 0.101562 -0.00390625 0.09375 -0.015625 C 0.0820312 -0.0234375 0.078125 -0.0351562 0.078125 -0.046875 C 0.078125 -0.0664062 0.0820312 -0.0820312 0.09375 -0.09375 C 0.101562 -0.101562 0.113281 -0.109375 0.125 -0.109375 C 0.144531 -0.109375 0.160156 -0.101562 0.171875 -0.09375 C 0.179688 -0.0820312 0.1875 -0.0664062 0.1875 -0.046875 C 0.1875 -0.0351562 0.179688 -0.0234375 0.171875 -0.015625 C 0.160156 -0.00390625 0.144531 0 0.125 0 Z M 0.125 0 "/></g></g></g></svg>